<svg
version="1.1"
id="svg833"
width="313.99105px"
height="885.73019px"
viewBox="0 0 313.99105 885.73019"
>
<g
    id="g841"
    transform="matrix(1.3333333,0,0,-1.3333333,-740.16777,885.72984)"
>
    <g id="g843" transform="scale(0.1)">
    <path
        d="m 5551.26,3001.05 c 0.1,-1.01 8.21,-23.59 21.19,-50.37 18.46,-37.97 44.08,-85.07 52.39,-96.82 1.23,-2.36 1.89,-3.22 1.7,-2.22 0.07,-0.06 0.19,-0.23 0.27,-0.31 11.26,-10.47 66.92,-49.07 99.46,-55.76 3.92,-0.81 7.73,-1.27 11.44,-1.55 0.32,-0.07 0.77,-0.18 1.1,-0.25 23.02,-3.28 88.07,19.47 87.01,22.68 -0.54,1.74 -1.01,4.36 -2.94,7.41 -2.08,3.72 -5.93,7.55 -12.08,10.69 5.86,2.26 18.18,10.17 28.25,18.52 9.03,7.46 19.31,11.36 3.72,24.31 -4.88,4.1 -15.64,5.21 -22.77,5.5 3.52,1.27 14.34,6.1 13.36,16.88 -0.7,7.89 -14.52,17.43 -22.97,17.97 0.21,21.47 -0.97,46.5 -5.34,68.85 -2.77,14.05 -7.96,82.4 -2.42,135.85 2.33,22.69 8.73,47.51 -15.38,98.41 -0.12,0.21 -4.47,14.93 -4.61,15.14 -3.38,8.08 -8.54,23.9 -11.94,45.98 0,0 -3.07,22.77 -6.82,59.64 -0.25,10.06 -5.09,34.92 4.25,69.82 6.83,49.4 41.87,103.73 73.98,184.6 11.46,28.78 26.36,66.14 41.83,107.91 3.54,9.08 6.63,17.53 9.24,25.24 15.96,44.46 31.99,92.69 44.95,140.52 22.75,83.92 62.54,347.44 65.26,394.56 1.93,33.4 8.58,85.04 27.54,141.7 3.73,10.51 7.69,21.18 11.87,31.96 5.36,13.09 11.34,26.27 18.19,39.49 20.28,39.1 38.92,88.29 54.27,136.53 -1.76,-10.21 77.76,-308.78 93.37,-441.49 35.32,-300.32 -55.48,-619 -108.88,-910.98 -0.04,-0.29 -0.08,-0.52 -0.14,-0.81 -14.65,-75.26 -27.15,-147.61 -36.25,-222.29 -20.59,-169.75 -18.56,-431.09 -12.15,-567.73 6.1,-130.15 30.5,-349.8 26,-389.7 -3.07,-27.14 -20.57,-86.22 -33.39,-122.82 -39.38,-112.09 -33.02,-169.01 -29.42,-201.96 2.4,-21.71 -2.17,-43.12 -10.11,-64.43 -3.32,-8.49 -7.52,-18.09 -12.42,-28.72 -14.27,-29.44 -32.22,-58.88 -44.66,-88.9 -25.48,-61.5 -75.35,-178.01 -90.33,-306.99 -15,-129.04 6.81,-338.001 29.5,-471.778 22.66,-133.555 42.64,-237.676 38.58,-352.207 -1.15,-31.785 -31.8,-118.098 -27.57,-155.676 1.82,-16.304 4.45,-35.75 5.97,-55.136 l -0.27,-5.614 c -2.73,-18.386 -25.67,-39.414 -46.21,-51.738 -22.5,-13.484 -78.49,-50.715 -81.86,-77.1094 -3.1,-24.375 1.58,-34.0039 15.88,-43.6719 8.43,-5.6953 25.37,-6.4258 30.77,-3.6328 0.61,-0.8789 1.14,-1.5625 1.63,-2.1953 3.41,-5.4414 11.1,-9.1914 11.1,-9.1914 0,0 -0.15,0.1875 -0.29,0.3125 7.98,-5.418 20.97,-8.7305 31.44,-5.6563 6.2,1.7969 8.58,3.5938 10.27,3.0195 2.41,-3.2812 7.11,-5.7812 10.6,-7.2734 5.63,-3.0859 13.38,-5.9414 23.04,-5.707 17.38,0.4414 25.56,6.6523 27.53,8.4297 2.97,-2.5 6.14,-4.5899 7.99,-5.7032 1.03,-0.8593 2.09,-1.6484 2.95,-2.2851 3.83,-2.7149 15.76,-9.336 35.31,-9.9336 14.48,-0.4375 30.3,7.6797 30.3,7.6797 l 9.3,4.1875 c 3.17,-3.875 7.38,-8.2813 12.88,-12.3047 10.4,-7.71486 18.09,-10.89064 37.1,-13.152362 23.39,-2.777348 49.46,1.050782 70.19,25.566362 20.74,24.4883 20.07,77.6522 18.18,90.8482 -1.87,13.164 -9.61,78.73 -1.14,120.41 11.13,54.699 11.34,85.144 5.67,118.105 -4.8,27.86 -29.3,65.676 -31.78,95.383 -2.5,29.754 6.3,129.617 23.26,218.184 13.85,72.351 49.07,228.992 76.93,338.33 6.49,23.86 13.13,48.69 20.05,75.14 1.56,5.71 2.98,11.28 4.32,16.67 1.59,6.14 3.2,12.37 4.82,18.69 1.62,6.44 3.51,16.54 5.41,29.08 5.97,33.43 8.19,60.31 9.56,83.16 1.18,14.38 2.14,28.9 2.71,42.92 2.8,34.65 1.65,76.58 3.98,108.04 0.25,2.92 0.5,5.88 0.8,8.86 0.43,4.2 0.97,8.18 1.59,11.82 0,0 0.97,39.11 2.63,53.08 0,0 7.77,43.48 50.8,153.68 32.61,83.51 69.61,166.8 82.79,201.67 55.43,146.81 125.31,571.24 136,625.64 10.25,52.17 114.91,515.56 135.41,606.26 13.29,-3.24 25.58,-3.6 33.73,-2.68 9.41,1.05 20.16,2.09 32.4,5.94 18.57,-82.1 125.8,-556.7 136.15,-609.52 10.7,-54.4 80.59,-478.83 135.99,-625.64 13.15,-34.87 50.19,-118.16 82.78,-201.67 11.37,-29.07 39.1,-105.54 50.36,-180.22 2.1,-13.89 3.08,-26.54 3.08,-26.54 0.62,-3.64 1.15,-7.62 1.61,-11.82 0.29,-2.98 0.54,-5.98 0.77,-8.86 2.37,-31.48 1.16,-73.39 3.99,-108.04 0.61,-14.02 1.55,-28.54 2.73,-42.92 1.35,-22.85 3.56,-49.73 9.52,-83.16 1.93,-12.54 3.85,-22.64 5.46,-29.08 1.6,-6.32 3.21,-12.55 4.77,-18.69 1.35,-5.39 2.8,-10.93 4.3,-16.6 6.95,-26.5 13.63,-51.35 20.12,-75.21 27.84,-109.338 63.06,-265.979 76.93,-338.33 16.94,-88.567 25.74,-188.43 23.26,-218.184 -2.52,-29.707 -27,-67.523 -31.82,-95.383 -5.67,-32.961 -5.44,-63.406 5.69,-118.105 8.47,-41.68 0.75,-107.246 -1.14,-120.41 -1.89,-13.196 -2.54,-66.3599 18.16,-90.8482 20.73,-24.51558 46.8,-28.34371 70.22,-25.566362 19,2.261722 26.7,5.437502 37.09,13.152362 5.51,4.0234 9.73,8.4297 12.89,12.3047 l 9.28,-4.1875 c 0,0 15.86,-8.1172 30.33,-7.6797 19.53,0.5976 31.47,7.2187 35.3,9.9336 0.87,0.6367 1.91,1.4258 2.94,2.2851 1.84,1.1133 5.01,3.2032 7.97,5.7032 1.97,-1.7774 10.18,-7.9883 27.56,-8.4297 9.67,-0.2344 17.41,2.6211 23.03,5.707 3.51,1.4922 8.2,3.9922 10.57,7.2734 1.75,0.5743 4.13,-1.2226 10.27,-3.0195 10.48,-3.0742 23.51,0.2383 31.44,5.6563 -0.1,-0.125 -0.25,-0.3125 -0.25,-0.3125 0,0 7.67,3.75 11.09,9.1914 0.48,0.6328 1,1.3164 1.62,2.1953 5.42,-2.793 22.35,-2.0625 30.79,3.6328 14.29,9.668 18.96,19.2969 15.87,43.6719 -3.38,26.3944 -59.37,63.6254 -81.87,77.1094 -20.52,12.324 -43.46,33.352 -46.23,51.738 l -0.25,5.614 c 1.52,19.386 4.15,38.832 6,55.136 4.23,37.578 -26.42,123.891 -27.6,155.676 -4.05,114.531 15.92,218.652 38.58,352.207 22.69,133.777 44.5,342.738 29.5,471.778 -15,128.98 -64.81,245.49 -90.33,306.99 -12.45,30.02 -30.35,59.46 -44.67,88.9 -4.86,10.63 -9.09,20.23 -12.43,28.72 -7.9,21.31 -12.48,42.72 -10.09,64.43 3.6,32.95 9.94,89.87 -29.41,201.96 -12.87,36.6 -30.32,95.68 -33.4,122.82 -4.51,39.9 19.88,259.55 26.01,389.7 6.39,136.64 8.45,397.98 -12.16,567.73 -9.08,74.68 -21.56,147.03 -36.26,222.29 -29.01,159 -66.53,315.04 -88.27,475.51 -0.89,-0.03 -1.84,-0.07 -2.82,-0.15 -3.5,39.71 -9.06,104.46 -9.53,121.01 -0.64,21.9 -6.89,65.65 -11.86,177.51 -1.61,35.41 -2.22,126.36 11.22,198.8 11.06,59.55 82.53,351.94 82.53,351.94 0,0 7.56,16.02 6.49,22.21 0.88,-2.33 14.16,-35.46 20.41,-50.33 10.64,-28.96 21.35,-56.38 31.05,-79.38 36.31,-85.72 54.88,-165.98 57.61,-213.13 2.73,-47.12 42.5,-310.64 65.24,-394.56 12.96,-47.82 28.98,-96.03 44.96,-140.46 2.61,-7.73 5.71,-16.2 9.27,-25.39 15.49,-41.73 30.36,-79.02 41.78,-107.81 32.16,-80.89 67.18,-135.2 74,-184.58 9.34,-34.94 4.49,-59.79 4.24,-69.86 -3.74,-36.83 -6.83,-59.6 -6.83,-59.6 -3.37,-22.09 -8.54,-37.92 -11.9,-46.01 -0.15,-0.2 -4.51,-14.95 -4.63,-15.13 -24.11,-50.93 -17.72,-75.71 -15.38,-98.41 5.53,-53.47 0.37,-121.81 -2.41,-135.86 -4.39,-22.36 -5.58,-47.38 -5.32,-68.83 -8.47,-0.56 -22.3,-10.08 -22.99,-17.99 -1.03,-10.81 9.86,-15.62 13.36,-16.89 -7.15,-0.28 -17.89,-1.38 -22.76,-5.49 -15.6,-12.93 -5.3,-16.87 3.7,-24.33 10.05,-8.36 22.4,-16.23 28.24,-18.5 -6.13,-3.14 -9.98,-6.97 -12.07,-10.67 -1.93,-3.07 -2.4,-5.7 -2.93,-7.41 -1.07,-3.27 63.98,-25.98 87.02,-22.71 0.31,0.08 0.76,0.21 1.1,0.28 3.7,0.25 7.5,0.73 11.42,1.52 32.57,6.71 88.21,45.27 99.49,55.79 0.06,0.06 0.15,0.23 0.24,0.3 -0.18,-1.03 0.45,-0.15 1.72,2.25 8.3,11.75 33.9,58.8 52.39,96.76 12.96,26.81 21.08,49.4 21.17,50.39 0.02,0.35 -0.16,0.45 -0.43,0.38 0.12,0.8 0.17,1.45 0.14,1.98 -0.76,6.81 -6.29,37.33 -12.19,68.63 -0.8,10.43 -3.13,29.39 -9.79,59.12 -1.23,5.59 -9.72,37.34 -12.45,64.89 -3.24,32.99 -4.84,58.49 -5.58,78.42 -0.29,12.03 -0.48,25.77 -0.44,38.43 0.11,7.95 0.39,14.09 0.51,18.82 0.95,32.5 1.5,78.44 0.5,90.82 -0.7,9 -1.21,31.37 -1.63,60.71 0.5,42.42 0.35,110.46 -2.48,189.38 -0.71,34.21 -1.61,64.43 -2.88,84.55 -1.22,18.91 -3.59,48.74 -7.12,85.06 -4.75,56.03 -11.21,112.42 -19.89,165.22 -11.79,81.2 -27.42,165.08 -47.08,227.58 -2.81,8.78 -6.7,23.62 -11.22,41.65 -2.8,11.39 -5.61,22.82 -8.47,34.24 -12.63,51.41 -27.53,112.4 -37.56,140.61 -15.47,43.59 -99.83,399.72 -109.69,539.93 -4.15,59.09 -17.01,241.73 -26.89,273.45 -30.36,97.57 -57.7,144.24 -57.7,144.24 0,0 -13.23,28.26 -60.08,57.1 -51.82,31.87 -84.53,34.87 -109.72,40.4 -3.5,0.86 -6.92,1.71 -10.3,2.56 -32.25,9.11 -46.25,11.64 -68.19,22.73 -9.21,4.97 -19.55,11.3 -30.88,18.54 -14.42,9.97 -34.27,24.23 -48.43,32.83 -6.02,4.05 -9.73,6.61 -9.73,6.61 l -29.28,18.76 c -34.7,21.04 -59.7,35.34 -84.51,49.3 -4.26,2.53 -8.55,5.1 -12.81,7.76 -25.62,16.67 -66.36,48.59 -83.59,66.73 -49.54,52.05 -33.18,135.29 -33.18,135.29 4.92,11.61 17.07,26.27 20.24,38.73 10.13,40.09 18.96,117.45 18.96,117.45 0,0 10.6,-9.15 21.74,-4.86 14.71,5.69 30.21,23.59 35.14,33.41 9.4,18.86 14.3,43.06 19.01,59.15 8.76,29.84 12.87,59.2 12.87,75.41 0,10.99 -1.7,29.12 -10.29,41.99 -8.56,12.85 -20.48,14.83 -20.48,14.83 0,0 6.62,114.25 -15.44,180.51 -27.2,81.8 -67.76,124.37 -96.01,145.83 -40.93,31.11 -79.34,56.84 -127.7,65.7 -48.45,8.78 -92.93,6.93 -110.6,5.28 -81.49,-7.54 -153.96,-62.25 -182.55,-90.8 -28.57,-28.61 -67.69,-91.23 -82.09,-155.42 -9.16,-41.02 -10.52,-62.11 -5.91,-100.51 1.34,-10.94 6.63,-54.98 6.63,-54.98 0,0 -16.06,3.31 -30.4,-20.65 -10.17,-16.93 -3.94,-59.64 1.8,-80.53 14.48,-52.66 19.78,-68.33 26.81,-82.37 6.57,-13.2 15.33,-25.88 28.74,-30.68 12.47,-4.42 19.77,0.4 19.77,0.4 0,0 7.26,-66.8 14.94,-104.57 2.83,-14.1 19.81,-23.47 23.57,-42.26 0,0 1.89,-85.2 -27.78,-124.72 -20.74,-27.63 -77.55,-74.07 -113.69,-96.65 -3.32,-1.99 -6.7,-3.96 -10.08,-5.91 -1.55,-0.89 -3.15,-1.77 -4.55,-2.47 -48.17,-23.83 -166.15,-105.27 -180.43,-111.75 -12.41,-5.67 -27.92,-16 -49.39,-22.24 -0.34,-0.09 -0.68,-0.18 -0.98,-0.27 -2.87,-0.81 -5.83,-1.58 -8.96,-2.22 -4.59,-0.94 -18.34,-4.29 -35.68,-9.05 -25.03,-6.4 -51.46,-13.89 -73.01,-23.96 -8.29,-3.37 -15.89,-6.84 -22.16,-10.3 -19.68,-10.84 -49.97,-36.05 -60.81,-49.75 -21.22,-26.74 -30.35,-43.41 -42.33,-68.72 -15.52,-32.91 -20.78,-59.16 -29.13,-86.09 -2.38,-7.57 -4.78,-22.99 -7.16,-42.85 -4.96,-34.24 -8.01,-77.43 -11.23,-123.85 -1.84,-24.18 -3.46,-47.18 -4.75,-66.08 -2.47,-31.63 -5.42,-63.53 -9.43,-94.07 -1.74,-12.37 -3.68,-25.38 -5.85,-38.86 -0.57,-3.41 -1.2,-6.8 -1.79,-10.14 -7.91,-42.32 -14.91,-82.47 -21.77,-121.33 -27.77,-142.78 -62.21,-289.88 -71.62,-316.37 -10.03,-28.24 -24.93,-89.23 -37.55,-140.63 -2.87,-11.4 -5.7,-22.84 -8.48,-34.18 -4.5,-18.08 -8.41,-32.93 -11.18,-41.73 -19.68,-62.46 -35.31,-146.35 -47.12,-227.56 -8.68,-52.79 -15.11,-109.19 -19.86,-165.22 -3.55,-36.31 -5.92,-66.18 -7.13,-85.08 -1.29,-20.13 -2.17,-50.35 -2.87,-84.56 -2.86,-78.87 -3,-146.92 -2.5,-189.34 -0.45,-29.38 -0.91,-51.74 -1.64,-60.77 -0.99,-12.32 -0.43,-58.25 0.52,-90.79 0.13,-4.74 0.38,-10.85 0.5,-18.82 0.03,-12.68 -0.18,-26.39 -0.45,-38.43 -0.72,-19.92 -2.34,-45.4 -5.57,-78.41 -2.72,-27.57 -11.21,-59.32 -12.46,-64.89 -6.67,-29.71 -8.99,-48.66 -9.8,-59.12 -5.88,-31.29 -11.43,-61.83 -12.16,-68.65 -0.05,-0.48 0,-1.16 0.14,-1.95 -0.3,0.04 -0.47,-0.05 -0.45,-0.39 z m 2174.6,-104.08 c 6.01,26.98 9.2,57.47 9.6,62.74 0.54,7.19 1.76,66.17 2.43,89.12 0.47,-0.03 1.41,-0.65 2.7,-1.73 5.89,-6.39 16.78,-20.12 19.46,-26.53 2.81,-2.95 6.26,-25.38 6.16,-33.62 -0.11,-8.32 -1.02,-29.75 -1.57,-37.38 -0.56,-1.46 -1.26,-3.57 -2.02,-6.14 -1.04,-1.97 -16.63,-31.05 -23.69,-36.97 -4.81,-4.03 -9.32,-7.17 -13.07,-9.49 z m -2034.61,89.59 c -0.11,8.26 3.34,30.69 6.16,33.63 2.67,6.36 13.58,20.13 19.45,26.52 1.3,1.08 2.24,1.72 2.71,1.72 0.68,-22.94 1.9,-81.91 2.43,-89.11 0.38,-5.28 3.6,-35.77 9.6,-62.75 -3.72,2.34 -8.24,5.46 -13.09,9.49 -7.04,5.92 -22.65,35.07 -23.71,37 -0.72,2.55 -1.42,4.65 -1.99,6.12 -0.55,7.62 -1.46,29.09 -1.56,37.38"
        fill="#C0C0C0"
        stroke="#808080"
        stroke-width="9"
    />
    </g>
</g>
</svg>